<svg width="282" height="191" viewBox="0 0 282 191" fill="none" xmlns="http://www.w3.org/2000/svg">
<rect width="281.25" height="191" rx="15" fill="#F7FAFB"/>
<path fill-rule="evenodd" clip-rule="evenodd" d="M34.969 27.319C36.4483 26.4397 37.1879 26 38.0001 26C38.8123 26 39.5519 26.4397 41.0312 27.319L45.469 29.9569C46.5273 30.5859 47.207 30.99 47.6569 31.4341L52.3462 28.0845C52.8518 27.7234 53.5544 27.8405 53.9156 28.3461C54.2767 28.8517 54.1596 29.5543 53.654 29.9155L48.4735 33.6158C48.5001 34.0866 48.5001 34.6528 48.5001 35.3621V40.6379C48.5001 42.3965 48.5001 43.2758 48.094 44C47.6879 44.7242 46.9483 45.1638 45.469 46.0431L41.0312 48.681C39.5519 49.5603 38.8123 50 38.0001 50C37.1879 50 36.4483 49.5603 34.969 48.681L30.5312 46.0431C29.5774 45.4762 28.9311 45.092 28.4835 44.6965L23.6242 47.9361C23.1072 48.2807 22.4087 48.141 22.0641 47.624C21.7194 47.1071 21.8591 46.4086 22.3761 46.0639L27.543 42.6193C27.5001 42.1044 27.5001 41.4694 27.5001 40.6379V35.3621C27.5001 34.5306 27.5001 33.8956 27.543 33.3807L22.3761 29.9361C21.8591 29.5914 21.7194 28.8929 22.0641 28.376C22.4087 27.859 23.1072 27.7193 23.6242 28.0639L28.4835 31.3035C28.9311 30.908 29.5774 30.5238 30.5312 29.9569L34.969 27.319ZM44.9665 41.174C45.2846 41.7077 45.1098 42.3983 44.5761 42.7164L38.5761 46.2925C38.0424 46.6106 37.3518 46.4358 37.0337 45.9021C36.7156 45.3684 36.8904 44.6778 37.4241 44.3597L43.4241 40.7836C43.9579 40.4655 44.6484 40.6403 44.9665 41.174Z" fill="#A0714D"/>
<path d="M21.1477 100V88.3636H25.6023C26.4432 88.3636 27.142 88.4962 27.6989 88.7614C28.2595 89.0227 28.678 89.3807 28.9545 89.8352C29.2348 90.2898 29.375 90.8049 29.375 91.3807C29.375 91.8542 29.2841 92.2595 29.1023 92.5966C28.9205 92.9299 28.6761 93.2008 28.3693 93.4091C28.0625 93.6174 27.7197 93.767 27.3409 93.858V93.9716C27.7538 93.9943 28.1496 94.1212 28.5284 94.3523C28.911 94.5795 29.2235 94.9015 29.4659 95.3182C29.7083 95.7348 29.8295 96.2386 29.8295 96.8295C29.8295 97.4318 29.6837 97.9735 29.392 98.4545C29.1004 98.9318 28.661 99.3087 28.0739 99.5852C27.4867 99.8617 26.7481 100 25.858 100H21.1477ZM23.2557 98.2386H25.5227C26.2879 98.2386 26.839 98.0928 27.1761 97.8011C27.517 97.5057 27.6875 97.1269 27.6875 96.6648C27.6875 96.3201 27.6023 96.0095 27.4318 95.733C27.2614 95.4527 27.0189 95.233 26.7045 95.0739C26.3902 94.911 26.0152 94.8295 25.5795 94.8295H23.2557V98.2386ZM23.2557 93.3125H25.3409C25.7045 93.3125 26.0322 93.2462 26.3239 93.1136C26.6155 92.9773 26.8447 92.786 27.0114 92.5398C27.1818 92.2898 27.267 91.9943 27.267 91.6534C27.267 91.2027 27.108 90.8314 26.7898 90.5398C26.4754 90.2481 26.0076 90.1023 25.3864 90.1023H23.2557V93.3125ZM35.0838 100.176C34.5308 100.176 34.0327 100.078 33.5895 99.8807C33.1501 99.6799 32.8016 99.3845 32.544 98.9943C32.2902 98.6042 32.1634 98.1231 32.1634 97.5511C32.1634 97.0587 32.2543 96.6515 32.4361 96.3295C32.6179 96.0076 32.866 95.75 33.1804 95.5568C33.4948 95.3636 33.849 95.2178 34.2429 95.1193C34.6406 95.017 35.0516 94.9432 35.4759 94.8977C35.9872 94.8447 36.402 94.7973 36.7202 94.7557C37.0384 94.7102 37.2694 94.642 37.4134 94.5511C37.5611 94.4564 37.6349 94.3106 37.6349 94.1136V94.0795C37.6349 93.6515 37.508 93.3201 37.2543 93.0852C37.0005 92.8504 36.6349 92.733 36.1577 92.733C35.6539 92.733 35.2543 92.8428 34.9588 93.0625C34.6671 93.2822 34.4702 93.5417 34.3679 93.8409L32.4474 93.5682C32.599 93.0379 32.849 92.5947 33.1974 92.2386C33.5459 91.8788 33.9721 91.6098 34.4759 91.4318C34.9796 91.25 35.5365 91.1591 36.1463 91.1591C36.5668 91.1591 36.9853 91.2083 37.402 91.3068C37.8187 91.4053 38.1993 91.5682 38.544 91.7955C38.8887 92.0189 39.1652 92.3239 39.3736 92.7102C39.5857 93.0966 39.6918 93.5795 39.6918 94.1591V100H37.7145V98.8011H37.6463C37.5213 99.0436 37.3452 99.2708 37.1179 99.483C36.8944 99.6913 36.6122 99.8598 36.2713 99.9886C35.9342 100.114 35.5384 100.176 35.0838 100.176ZM35.6179 98.6648C36.0308 98.6648 36.3887 98.5833 36.6918 98.4205C36.9948 98.2538 37.2277 98.0341 37.3906 97.7614C37.5573 97.4886 37.6406 97.1913 37.6406 96.8693V95.8409C37.5762 95.8939 37.4664 95.9432 37.3111 95.9886C37.1596 96.0341 36.9891 96.0739 36.7997 96.108C36.6103 96.142 36.4228 96.1723 36.2372 96.1989C36.0516 96.2254 35.8906 96.2481 35.7543 96.267C35.4474 96.3087 35.1728 96.3769 34.9304 96.4716C34.688 96.5663 34.4967 96.6989 34.3565 96.8693C34.2164 97.036 34.1463 97.2519 34.1463 97.517C34.1463 97.8958 34.2846 98.1818 34.5611 98.375C34.8376 98.5682 35.1899 98.6648 35.6179 98.6648ZM44.8168 94.8864V100H42.7599V88.3636H44.7713V92.7557H44.8736C45.0781 92.2633 45.3944 91.875 45.8224 91.5909C46.2543 91.303 46.8035 91.1591 47.4702 91.1591C48.0762 91.1591 48.6046 91.286 49.0554 91.5398C49.5062 91.7936 49.8546 92.1648 50.1009 92.6534C50.3509 93.142 50.4759 93.7386 50.4759 94.4432V100H48.419V94.7614C48.419 94.1742 48.2675 93.7178 47.9645 93.392C47.6652 93.0625 47.2448 92.8977 46.7031 92.8977C46.3395 92.8977 46.0137 92.9773 45.7259 93.1364C45.4418 93.2917 45.2183 93.517 45.0554 93.8125C44.8963 94.108 44.8168 94.4659 44.8168 94.8864ZM56.0838 100.176C55.5308 100.176 55.0327 100.078 54.5895 99.8807C54.1501 99.6799 53.8016 99.3845 53.544 98.9943C53.2902 98.6042 53.1634 98.1231 53.1634 97.5511C53.1634 97.0587 53.2543 96.6515 53.4361 96.3295C53.6179 96.0076 53.866 95.75 54.1804 95.5568C54.4948 95.3636 54.849 95.2178 55.2429 95.1193C55.6406 95.017 56.0516 94.9432 56.4759 94.8977C56.9872 94.8447 57.402 94.7973 57.7202 94.7557C58.0384 94.7102 58.2694 94.642 58.4134 94.5511C58.5611 94.4564 58.6349 94.3106 58.6349 94.1136V94.0795C58.6349 93.6515 58.508 93.3201 58.2543 93.0852C58.0005 92.8504 57.6349 92.733 57.1577 92.733C56.6539 92.733 56.2543 92.8428 55.9588 93.0625C55.6671 93.2822 55.4702 93.5417 55.3679 93.8409L53.4474 93.5682C53.599 93.0379 53.849 92.5947 54.1974 92.2386C54.5459 91.8788 54.9721 91.6098 55.4759 91.4318C55.9796 91.25 56.5365 91.1591 57.1463 91.1591C57.5668 91.1591 57.9853 91.2083 58.402 91.3068C58.8187 91.4053 59.1993 91.5682 59.544 91.7955C59.8887 92.0189 60.1652 92.3239 60.3736 92.7102C60.5857 93.0966 60.6918 93.5795 60.6918 94.1591V100H58.7145V98.8011H58.6463C58.5213 99.0436 58.3452 99.2708 58.1179 99.483C57.8944 99.6913 57.6122 99.8598 57.2713 99.9886C56.9342 100.114 56.5384 100.176 56.0838 100.176ZM56.6179 98.6648C57.0308 98.6648 57.3887 98.5833 57.6918 98.4205C57.9948 98.2538 58.2277 98.0341 58.3906 97.7614C58.5573 97.4886 58.6406 97.1913 58.6406 96.8693V95.8409C58.5762 95.8939 58.4664 95.9432 58.3111 95.9886C58.1596 96.0341 57.9891 96.0739 57.7997 96.108C57.6103 96.142 57.4228 96.1723 57.2372 96.1989C57.0516 96.2254 56.8906 96.2481 56.7543 96.267C56.4474 96.3087 56.1728 96.3769 55.9304 96.4716C55.688 96.5663 55.4967 96.6989 55.3565 96.8693C55.2164 97.036 55.1463 97.2519 55.1463 97.517C55.1463 97.8958 55.2846 98.1818 55.5611 98.375C55.8376 98.5682 56.1899 98.6648 56.6179 98.6648ZM65.8168 94.8864V100H63.7599V91.2727H65.7259V92.7557H65.8281C66.0289 92.267 66.349 91.8788 66.7884 91.5909C67.2315 91.303 67.7789 91.1591 68.4304 91.1591C69.0327 91.1591 69.5573 91.2879 70.0043 91.5455C70.455 91.803 70.8035 92.1761 71.0497 92.6648C71.2997 93.1534 71.4228 93.7462 71.419 94.4432V100H69.3622V94.7614C69.3622 94.178 69.2107 93.7216 68.9077 93.392C68.6084 93.0625 68.1937 92.8977 67.6634 92.8977C67.3035 92.8977 66.9834 92.9773 66.7031 93.1364C66.4266 93.2917 66.2088 93.517 66.0497 93.8125C65.8944 94.108 65.8168 94.4659 65.8168 94.8864ZM79.5696 100V88.3636H84.0241C84.8651 88.3636 85.5639 88.4962 86.1207 88.7614C86.6813 89.0227 87.0999 89.3807 87.3764 89.8352C87.6567 90.2898 87.7969 90.8049 87.7969 91.3807C87.7969 91.8542 87.706 92.2595 87.5241 92.5966C87.3423 92.9299 87.098 93.2008 86.7912 93.4091C86.4844 93.6174 86.1416 93.767 85.7628 93.858V93.9716C86.1757 93.9943 86.5715 94.1212 86.9503 94.3523C87.3329 94.5795 87.6454 94.9015 87.8878 95.3182C88.1302 95.7348 88.2514 96.2386 88.2514 96.8295C88.2514 97.4318 88.1056 97.9735 87.8139 98.4545C87.5223 98.9318 87.0829 99.3087 86.4957 99.5852C85.9086 99.8617 85.17 100 84.2798 100H79.5696ZM81.6776 98.2386H83.9446C84.7098 98.2386 85.2609 98.0928 85.598 97.8011C85.9389 97.5057 86.1094 97.1269 86.1094 96.6648C86.1094 96.3201 86.0241 96.0095 85.8537 95.733C85.6832 95.4527 85.4408 95.233 85.1264 95.0739C84.812 94.911 84.437 94.8295 84.0014 94.8295H81.6776V98.2386ZM81.6776 93.3125H83.7628C84.1264 93.3125 84.4541 93.2462 84.7457 93.1136C85.0374 92.9773 85.2666 92.786 85.4332 92.5398C85.6037 92.2898 85.6889 91.9943 85.6889 91.6534C85.6889 91.2027 85.5298 90.8314 85.2116 90.5398C84.8973 90.2481 84.4295 90.1023 83.8082 90.1023H81.6776V93.3125ZM93.5057 100.176C92.9527 100.176 92.4545 100.078 92.0114 99.8807C91.572 99.6799 91.2235 99.3845 90.9659 98.9943C90.7121 98.6042 90.5852 98.1231 90.5852 97.5511C90.5852 97.0587 90.6761 96.6515 90.858 96.3295C91.0398 96.0076 91.2879 95.75 91.6023 95.5568C91.9167 95.3636 92.2708 95.2178 92.6648 95.1193C93.0625 95.017 93.4735 94.9432 93.8977 94.8977C94.4091 94.8447 94.8239 94.7973 95.142 94.7557C95.4602 94.7102 95.6913 94.642 95.8352 94.5511C95.983 94.4564 96.0568 94.3106 96.0568 94.1136V94.0795C96.0568 93.6515 95.9299 93.3201 95.6761 93.0852C95.4223 92.8504 95.0568 92.733 94.5795 92.733C94.0758 92.733 93.6761 92.8428 93.3807 93.0625C93.089 93.2822 92.892 93.5417 92.7898 93.8409L90.8693 93.5682C91.0208 93.0379 91.2708 92.5947 91.6193 92.2386C91.9678 91.8788 92.3939 91.6098 92.8977 91.4318C93.4015 91.25 93.9583 91.1591 94.5682 91.1591C94.9886 91.1591 95.4072 91.2083 95.8239 91.3068C96.2405 91.4053 96.6212 91.5682 96.9659 91.7955C97.3106 92.0189 97.5871 92.3239 97.7955 92.7102C98.0076 93.0966 98.1136 93.5795 98.1136 94.1591V100H96.1364V98.8011H96.0682C95.9432 99.0436 95.767 99.2708 95.5398 99.483C95.3163 99.6913 95.0341 99.8598 94.6932 99.9886C94.3561 100.114 93.9602 100.176 93.5057 100.176ZM94.0398 98.6648C94.4527 98.6648 94.8106 98.5833 95.1136 98.4205C95.4167 98.2538 95.6496 98.0341 95.8125 97.7614C95.9792 97.4886 96.0625 97.1913 96.0625 96.8693V95.8409C95.9981 95.8939 95.8883 95.9432 95.733 95.9886C95.5814 96.0341 95.411 96.0739 95.2216 96.108C95.0322 96.142 94.8447 96.1723 94.6591 96.1989C94.4735 96.2254 94.3125 96.2481 94.1761 96.267C93.8693 96.3087 93.5947 96.3769 93.3523 96.4716C93.1098 96.5663 92.9186 96.6989 92.7784 96.8693C92.6383 97.036 92.5682 97.2519 92.5682 97.517C92.5682 97.8958 92.7064 98.1818 92.983 98.375C93.2595 98.5682 93.6117 98.6648 94.0398 98.6648ZM103.057 97.2614L103.051 94.7784H103.381L106.517 91.2727H108.92L105.062 95.5682H104.636L103.057 97.2614ZM101.182 100V88.3636H103.239V100H101.182ZM106.659 100L103.818 96.0284L105.205 94.5795L109.119 100H106.659ZM116.854 96.3295V91.2727H118.911V100H116.916V98.4489H116.825C116.628 98.9375 116.304 99.3371 115.854 99.6477C115.407 99.9583 114.856 100.114 114.2 100.114C113.628 100.114 113.123 99.9867 112.683 99.733C112.248 99.4754 111.907 99.1023 111.661 98.6136C111.414 98.1212 111.291 97.5265 111.291 96.8295V91.2727H113.348V96.5114C113.348 97.0644 113.5 97.5038 113.803 97.8295C114.106 98.1553 114.503 98.3182 114.996 98.3182C115.299 98.3182 115.592 98.2443 115.876 98.0966C116.161 97.9489 116.393 97.7292 116.575 97.4375C116.761 97.142 116.854 96.7727 116.854 96.3295Z" fill="#333333"/>
<path d="M23.9716 123.273V132H22.9148V124.381H22.8636L20.733 125.795V124.722L22.9148 123.273H23.9716ZM30.5497 123.273V132H29.4929V124.381H29.4418L27.3111 125.795V124.722L29.4929 123.273H30.5497ZM37.1278 123.273V132H36.071V124.381H36.0199L33.8892 125.795V124.722L36.071 123.273H37.1278ZM49.9389 125.455C49.8878 125.023 49.6804 124.688 49.3168 124.449C48.9531 124.21 48.5071 124.091 47.9787 124.091C47.5923 124.091 47.2543 124.153 46.9645 124.278C46.6776 124.403 46.4531 124.575 46.2912 124.794C46.1321 125.013 46.0526 125.261 46.0526 125.54C46.0526 125.773 46.108 125.973 46.2188 126.141C46.3324 126.305 46.4773 126.443 46.6534 126.554C46.8295 126.662 47.0142 126.751 47.2074 126.822C47.4006 126.891 47.5781 126.946 47.7401 126.989L48.6264 127.227C48.8537 127.287 49.1065 127.369 49.3849 127.474C49.6662 127.58 49.9347 127.723 50.1903 127.905C50.4489 128.084 50.6619 128.314 50.8295 128.595C50.9972 128.876 51.081 129.222 51.081 129.631C51.081 130.102 50.9574 130.528 50.7102 130.909C50.4659 131.29 50.108 131.592 49.6364 131.817C49.1676 132.041 48.598 132.153 47.9276 132.153C47.3026 132.153 46.7614 132.053 46.304 131.851C45.8494 131.649 45.4915 131.368 45.2301 131.007C44.9716 130.646 44.8253 130.227 44.7912 129.75H45.8821C45.9105 130.08 46.0213 130.352 46.2145 130.568C46.4105 130.781 46.6577 130.94 46.956 131.045C47.2571 131.148 47.581 131.199 47.9276 131.199C48.331 131.199 48.6932 131.134 49.0142 131.003C49.3352 130.869 49.5895 130.685 49.777 130.449C49.9645 130.21 50.0582 129.932 50.0582 129.614C50.0582 129.324 49.9773 129.088 49.8153 128.906C49.6534 128.724 49.4403 128.577 49.1761 128.463C48.9119 128.349 48.6264 128.25 48.3196 128.165L47.2457 127.858C46.5639 127.662 46.0241 127.382 45.6264 127.018C45.2287 126.655 45.0298 126.179 45.0298 125.591C45.0298 125.102 45.1619 124.676 45.4261 124.312C45.6932 123.946 46.0511 123.662 46.5 123.46C46.9517 123.256 47.456 123.153 48.0128 123.153C48.5753 123.153 49.0753 123.254 49.5128 123.456C49.9503 123.655 50.2969 123.928 50.5526 124.274C50.8111 124.621 50.9474 125.014 50.9616 125.455H49.9389ZM55.6083 132.153C55.1935 132.153 54.8171 132.075 54.479 131.919C54.141 131.76 53.8725 131.531 53.6737 131.233C53.4748 130.932 53.3754 130.568 53.3754 130.142C53.3754 129.767 53.4492 129.463 53.5969 129.23C53.7447 128.994 53.9421 128.81 54.1893 128.676C54.4364 128.543 54.7092 128.443 55.0075 128.378C55.3086 128.31 55.6112 128.256 55.9151 128.216C56.3129 128.165 56.6353 128.126 56.8825 128.101C57.1325 128.072 57.3143 128.026 57.4279 127.96C57.5444 127.895 57.6026 127.781 57.6026 127.619V127.585C57.6026 127.165 57.4876 126.838 57.2575 126.605C57.0302 126.372 56.685 126.256 56.2219 126.256C55.7418 126.256 55.3654 126.361 55.0927 126.571C54.82 126.781 54.6282 127.006 54.5174 127.244L53.5629 126.903C53.7333 126.506 53.9606 126.196 54.2447 125.974C54.5316 125.75 54.8441 125.594 55.1822 125.506C55.5231 125.415 55.8583 125.369 56.1879 125.369C56.3981 125.369 56.6396 125.395 56.9123 125.446C57.1879 125.494 57.4535 125.595 57.7092 125.749C57.9677 125.902 58.1822 126.134 58.3526 126.443C58.5231 126.753 58.6083 127.168 58.6083 127.688V132H57.6026V131.114H57.5515C57.4833 131.256 57.3697 131.408 57.2106 131.57C57.0515 131.732 56.8398 131.869 56.5756 131.983C56.3114 132.097 55.989 132.153 55.6083 132.153ZM55.7617 131.25C56.1594 131.25 56.4947 131.172 56.7674 131.016C57.043 130.859 57.2504 130.658 57.3896 130.411C57.5316 130.163 57.6026 129.903 57.6026 129.631V128.71C57.56 128.761 57.4663 128.808 57.3214 128.851C57.1793 128.891 57.0146 128.926 56.8271 128.957C56.6424 128.986 56.462 129.011 56.2859 129.034C56.1126 129.054 55.9719 129.071 55.864 129.085C55.6026 129.119 55.3583 129.175 55.131 129.251C54.9066 129.325 54.7248 129.437 54.5856 129.588C54.4492 129.736 54.381 129.937 54.381 130.193C54.381 130.543 54.5103 130.807 54.7688 130.986C55.0302 131.162 55.3612 131.25 55.7617 131.25ZM62.4496 128.062V132H61.4439V123.273H62.4496V126.477H62.5348C62.6882 126.139 62.9183 125.871 63.2251 125.672C63.5348 125.47 63.9467 125.369 64.4609 125.369C64.907 125.369 65.2976 125.459 65.6328 125.638C65.968 125.814 66.228 126.085 66.4126 126.452C66.6001 126.815 66.6939 127.278 66.6939 127.841V132H65.6882V127.909C65.6882 127.389 65.5533 126.987 65.2834 126.703C65.0163 126.416 64.6456 126.273 64.1712 126.273C63.8416 126.273 63.5462 126.342 63.2848 126.482C63.0263 126.621 62.8217 126.824 62.6712 127.091C62.5234 127.358 62.4496 127.682 62.4496 128.062ZM71.4599 132.153C71.0451 132.153 70.6687 132.075 70.3306 131.919C69.9925 131.76 69.7241 131.531 69.5252 131.233C69.3263 130.932 69.2269 130.568 69.2269 130.142C69.2269 129.767 69.3008 129.463 69.4485 129.23C69.5962 128.994 69.7937 128.81 70.0408 128.676C70.288 128.543 70.5607 128.443 70.859 128.378C71.1602 128.31 71.4627 128.256 71.7667 128.216C72.1644 128.165 72.4869 128.126 72.734 128.101C72.984 128.072 73.1658 128.026 73.2795 127.96C73.396 127.895 73.4542 127.781 73.4542 127.619V127.585C73.4542 127.165 73.3391 126.838 73.109 126.605C72.8817 126.372 72.5366 126.256 72.0735 126.256C71.5934 126.256 71.217 126.361 70.9442 126.571C70.6715 126.781 70.4798 127.006 70.369 127.244L69.4144 126.903C69.5849 126.506 69.8121 126.196 70.0962 125.974C70.3832 125.75 70.6957 125.594 71.0337 125.506C71.3746 125.415 71.7099 125.369 72.0394 125.369C72.2496 125.369 72.4911 125.395 72.7638 125.446C73.0394 125.494 73.305 125.595 73.5607 125.749C73.8192 125.902 74.0337 126.134 74.2042 126.443C74.3746 126.753 74.4599 127.168 74.4599 127.688V132H73.4542V131.114H73.4031C73.3349 131.256 73.2212 131.408 73.0621 131.57C72.9031 131.732 72.6914 131.869 72.4272 131.983C72.163 132.097 71.8406 132.153 71.4599 132.153ZM71.6133 131.25C72.011 131.25 72.3462 131.172 72.619 131.016C72.8945 130.859 73.1019 130.658 73.2411 130.411C73.3832 130.163 73.4542 129.903 73.4542 129.631V128.71C73.4116 128.761 73.3178 128.808 73.1729 128.851C73.0309 128.891 72.8661 128.926 72.6786 128.957C72.494 128.986 72.3136 129.011 72.1374 129.034C71.9641 129.054 71.8235 129.071 71.7156 129.085C71.4542 129.119 71.2099 129.175 70.9826 129.251C70.7582 129.325 70.5763 129.437 70.4371 129.588C70.3008 129.736 70.2326 129.937 70.2326 130.193C70.2326 130.543 70.3619 130.807 70.6204 130.986C70.8817 131.162 71.2127 131.25 71.6133 131.25ZM77.2955 132V125.455H78.267V126.477H78.3523C78.4886 126.128 78.7088 125.857 79.0128 125.663C79.3168 125.467 79.6818 125.369 80.108 125.369C80.5398 125.369 80.8991 125.467 81.1861 125.663C81.4759 125.857 81.7017 126.128 81.8636 126.477H81.9318C82.0994 126.139 82.3509 125.871 82.6861 125.672C83.0213 125.47 83.4233 125.369 83.892 125.369C84.4773 125.369 84.956 125.553 85.3281 125.919C85.7003 126.283 85.8864 126.849 85.8864 127.619V132H84.8807V127.619C84.8807 127.136 84.7486 126.791 84.4844 126.584C84.2202 126.376 83.9091 126.273 83.5511 126.273C83.0909 126.273 82.7344 126.412 82.4815 126.69C82.2287 126.966 82.1023 127.315 82.1023 127.739V132H81.0795V127.517C81.0795 127.145 80.9588 126.845 80.7173 126.618C80.4759 126.388 80.1648 126.273 79.7841 126.273C79.5227 126.273 79.2784 126.342 79.0511 126.482C78.8267 126.621 78.6449 126.814 78.5057 127.061C78.3693 127.305 78.3011 127.588 78.3011 127.909V132H77.2955Z" fill="#707070"/>
<path d="M23.4773 162.466V156.841H24.4318V162.466H23.4773ZM21.142 160.131V159.176H26.767V160.131H21.142ZM29.609 162.21V161.341L33.4442 155.273H34.0749V156.619H33.6488L30.7511 161.205V161.273H35.9158V162.21H29.609ZM33.717 164V161.946V161.541V155.273H34.7227V164H33.717ZM39.6197 162.807L39.5515 163.267C39.5032 163.591 39.4293 163.938 39.3299 164.307C39.2333 164.676 39.1325 165.024 39.0273 165.351C38.9222 165.678 38.8356 165.938 38.7674 166.131H38.0004C38.0373 165.949 38.0856 165.709 38.1452 165.411C38.2049 165.112 38.2646 164.778 38.3242 164.409C38.3867 164.043 38.4379 163.668 38.4776 163.284L38.5288 162.807H39.6197ZM42.4659 164V163.233L45.3466 160.08C45.6847 159.71 45.9631 159.389 46.1818 159.116C46.4006 158.841 46.5625 158.582 46.6676 158.341C46.7756 158.097 46.8295 157.841 46.8295 157.574C46.8295 157.267 46.7557 157.001 46.608 156.777C46.4631 156.553 46.2642 156.379 46.0114 156.257C45.7585 156.135 45.4744 156.074 45.1591 156.074C44.8239 156.074 44.5312 156.143 44.2812 156.283C44.0341 156.419 43.8423 156.611 43.706 156.858C43.5724 157.105 43.5057 157.395 43.5057 157.727H42.5C42.5 157.216 42.6179 156.767 42.8537 156.381C43.0895 155.994 43.4105 155.693 43.8168 155.477C44.2259 155.261 44.6847 155.153 45.1932 155.153C45.7045 155.153 46.1577 155.261 46.5526 155.477C46.9474 155.693 47.2571 155.984 47.4815 156.351C47.706 156.717 47.8182 157.125 47.8182 157.574C47.8182 157.895 47.7599 158.209 47.6435 158.516C47.5298 158.82 47.331 159.159 47.0469 159.534C46.7656 159.906 46.375 160.361 45.875 160.898L43.9148 162.994V163.062H47.9716V164H42.4659ZM53.4588 164.119C52.9588 164.119 52.5085 164.02 52.108 163.821C51.7074 163.622 51.3864 163.349 51.1449 163.003C50.9034 162.656 50.7713 162.261 50.7486 161.818H51.7713C51.8111 162.213 51.9901 162.54 52.3082 162.798C52.6293 163.054 53.0128 163.182 53.4588 163.182C53.8168 163.182 54.1349 163.098 54.4134 162.93C54.6946 162.763 54.9148 162.533 55.0739 162.24C55.2358 161.945 55.3168 161.611 55.3168 161.239C55.3168 160.858 55.233 160.518 55.0653 160.22C54.9006 159.919 54.6733 159.682 54.3835 159.509C54.0938 159.335 53.7628 159.247 53.3906 159.244C53.1236 159.241 52.8494 159.283 52.5682 159.368C52.2869 159.45 52.0554 159.557 51.8736 159.688L50.8849 159.568L51.4134 155.273H55.9474V156.21H52.2997L51.9929 158.784H52.044C52.223 158.642 52.4474 158.524 52.7173 158.43C52.9872 158.337 53.2685 158.29 53.5611 158.29C54.0952 158.29 54.571 158.418 54.9886 158.673C55.4091 158.926 55.7386 159.273 55.9773 159.713C56.2188 160.153 56.3395 160.656 56.3395 161.222C56.3395 161.778 56.2145 162.276 55.9645 162.713C55.7173 163.148 55.3764 163.491 54.9418 163.744C54.5071 163.994 54.0128 164.119 53.4588 164.119ZM63.4812 162.364V161.903C63.4812 161.585 63.5465 161.294 63.6772 161.03C63.8107 160.763 64.0039 160.55 64.2567 160.391C64.5124 160.229 64.8221 160.148 65.1857 160.148C65.555 160.148 65.8647 160.229 66.1147 160.391C66.3647 160.55 66.5536 160.763 66.6815 161.03C66.8093 161.294 66.8732 161.585 66.8732 161.903V162.364C66.8732 162.682 66.8079 162.974 66.6772 163.241C66.5494 163.506 66.359 163.719 66.1062 163.881C65.8562 164.04 65.5494 164.119 65.1857 164.119C64.8164 164.119 64.5053 164.04 64.2525 163.881C63.9996 163.719 63.8079 163.506 63.6772 163.241C63.5465 162.974 63.4812 162.682 63.4812 162.364ZM64.3505 161.903V162.364C64.3505 162.628 64.413 162.865 64.538 163.075C64.663 163.283 64.8789 163.386 65.1857 163.386C65.484 163.386 65.6942 163.283 65.8164 163.075C65.9414 162.865 66.0039 162.628 66.0039 162.364V161.903C66.0039 161.639 65.9442 161.403 65.8249 161.196C65.7056 160.986 65.4925 160.881 65.1857 160.881C64.8874 160.881 64.6729 160.986 64.5423 161.196C64.4144 161.403 64.3505 161.639 64.3505 161.903ZM59.1346 157.369V156.909C59.1346 156.591 59.1999 156.3 59.3306 156.036C59.4641 155.768 59.6573 155.555 59.9102 155.396C60.1658 155.234 60.4755 155.153 60.8391 155.153C61.2085 155.153 61.5181 155.234 61.7681 155.396C62.0181 155.555 62.207 155.768 62.3349 156.036C62.4627 156.3 62.5266 156.591 62.5266 156.909V157.369C62.5266 157.687 62.4613 157.98 62.3306 158.247C62.2028 158.511 62.0124 158.724 61.7596 158.886C61.5096 159.045 61.2028 159.125 60.8391 159.125C60.4698 159.125 60.1587 159.045 59.9059 158.886C59.6531 158.724 59.4613 158.511 59.3306 158.247C59.1999 157.98 59.1346 157.687 59.1346 157.369ZM60.0039 156.909V157.369C60.0039 157.634 60.0664 157.871 60.1914 158.081C60.3164 158.288 60.5323 158.392 60.8391 158.392C61.1374 158.392 61.3477 158.288 61.4698 158.081C61.5948 157.871 61.6573 157.634 61.6573 157.369V156.909C61.6573 156.645 61.5977 156.409 61.4783 156.202C61.359 155.991 61.146 155.886 60.8391 155.886C60.5408 155.886 60.3263 155.991 60.1957 156.202C60.0678 156.409 60.0039 156.645 60.0039 156.909ZM59.4585 164L65.4585 155.273H66.43L60.43 164H59.4585Z" fill="#008375"/>
</svg>
